<svg width="24" height="24" viewBox="0 0 24 24" fill="none" xmlns="http://www.w3.org/2000/svg">
    <path d="M12 17C13.1046 17 14 16.1046 14 15C14 13.8954 13.1046 13 12 13C10.8954 13 10 13.8954 10 15C10 16.1046 10.8954 17 12 17Z" fill="black"/>
    <path fill-rule="evenodd" clip-rule="evenodd" d="M18 10V8C18 4.69 15.31 2 12 2C8.69 2 6 4.69 6 8V10C4.34 10 3 11.34 3 13V20C3 21.66 4.34 23 6 23H18C19.66 23 21 21.66 21 20V13C21 11.34 19.66 10 18 10ZM8 8C8 5.79 9.79 4 12 4C14.21 4 16 5.79 16 8V10H8V8ZM19 20C19 20.55 18.55 21 18 21H6C5.45 21 5 20.55 5 20V13C5 12.45 5.45 12 6 12H18C18.55 12 19 12.45 19 13V20Z" fill="black"/>
</svg>