<svg width="24" height="24" viewBox="0 0 24 24" fill="none" xmlns="http://www.w3.org/2000/svg">
    <path fill-rule="evenodd" clip-rule="evenodd" d="M19.14 12.94C19.16 12.78 19.16 12.61 19.16 12.45C19.16 12.29 19.16 12.12 19.14 11.96L21.16 10.39C21.34 10.25 21.4 10.01 21.28 9.8L19.38 6.5C19.25 6.28 19 6.19 18.8 6.27L16.42 7.23C15.93 6.85 15.4 6.53 14.82 6.29L14.45 3.76C14.42 3.53 14.23 3.35 14 3.35H10.19C9.96 3.35 9.77 3.53 9.74 3.76L9.38 6.29C8.8 6.53 8.26 6.85 7.78 7.23L5.4 6.27C5.17 6.18 4.93 6.28 4.81 6.5L2.91 9.79C2.79 10 2.84 10.24 3.03 10.38L5.05 11.96C5.03 12.12 5.03 12.29 5.03 12.45C5.03 12.61 5.03 12.78 5.05 12.94L3.03 14.51C2.84 14.65 2.79 14.89 2.91 15.1L4.81 18.4C4.94 18.61 5.18 18.7 5.4 18.62L7.78 17.66C8.27 18.04 8.8 18.36 9.38 18.6L9.74 21.14C9.77 21.36 9.96 21.54 10.19 21.54H14C14.23 21.54 14.42 21.36 14.45 21.13L14.81 18.6C15.39 18.36 15.92 18.04 16.41 17.66L18.79 18.62C19.01 18.71 19.25 18.61 19.37 18.4L21.27 15.1C21.39 14.89 21.34 14.65 21.15 14.51L19.14 12.94ZM12.1 15.45C10.44 15.45 9.1 14.11 9.1 12.45C9.1 10.79 10.44 9.45 12.1 9.45C13.76 9.45 15.1 10.79 15.1 12.45C15.1 14.11 13.76 15.45 12.1 15.45Z" fill="#000000"/>
</svg>