<?xml version="1.0" encoding="UTF-8"?>
<svg width="24px" height="24px" viewBox="0 0 24 24" version="1.1" xmlns="http://www.w3.org/2000/svg">
    <g stroke="none" stroke-width="1" fill="none" fill-rule="evenodd">
        <path d="M19,3 L5,3 C3.9,3 3,3.9 3,5 L3,19 C3,20.1 3.9,21 5,21 L19,21 C20.1,21 21,20.1 21,19 L21,5 C21,3.9 20.1,3 19,3 Z M5,19 L5,17 C5,15.67 7.67,15 9,15 C10.33,15 13,15.67 13,17 L13,19 L5,19 Z M12,10 C12,11.66 10.66,13 9,13 C7.34,13 6,11.66 6,10 C6,8.34 7.34,7 9,7 C10.66,7 12,8.34 12,10 Z M18,13 L15,13 L15,11 L18,11 L18,13 Z M18,9 L15,9 L15,7 L18,7 L18,9 Z M18,17 L15,17 L15,15 L18,15 L18,17 Z" fill="#000000"/>
    </g>
</svg>