<?xml version="1.0" encoding="utf-8"?>
<!-- Generator: Adobe Illustrator 24.3.0, SVG Export Plug-In . SVG Version: 6.00 Build 0)  -->
<svg version="1.1" id="图层_1" xmlns="http://www.w3.org/2000/svg" xmlns:xlink="http://www.w3.org/1999/xlink" x="0px" y="0px"
	 viewBox="0 0 24 24" style="enable-background:new 0 0 24 24;" xml:space="preserve">
<path id="path-1" d="M20.8,4h-17C2.2,4,1,5.2,1,6.7v11c0,1.5,1.2,2.8,2.8,2.8h17c1.5,0,2.8-1.2,2.8-2.8v-11C23.5,5.2,22.3,4,20.8,4z
	 M3.8,5.5h17c0.7,0,1.2,0.6,1.2,1.2v11c0,0.7-0.6,1.2-1.2,1.2h-17c-0.7,0-1.2-0.6-1.2-1.2v-11C2.5,6.1,3.1,5.5,3.8,5.5z"/>
</svg>
