<?xml version="1.0" encoding="UTF-8"?>
<svg width="24px" height="24px" viewBox="0 0 24 24" version="1.1" xmlns="http://www.w3.org/2000/svg" xmlns:xlink="http://www.w3.org/1999/xlink">
    <title>Public/ic_public_unlock_filled</title>
    <defs>
        <path d="M5.75,1 C8.20766714,1 10.2051704,2.97019583 10.2492559,5.41733369 L10.25,5.5 L10.25,9 L16.5,9 C18.1568542,9 19.5,10.3431458 19.5,12 L19.5,18.5 C19.5,20.1568542 18.1568542,21.5 16.5,21.5 L7.5,21.5 C5.84314575,21.5 4.5,20.1568542 4.5,18.5 L4.5,12 C4.5,10.3431458 5.84314575,9 7.5,9 L8.25,9 L8.25,5.5 C8.25,4.11928813 7.13071187,3 5.75,3 C4.39269002,3 3.28801707,4.0816677 3.25096045,5.43002379 L3.25,7.5140186 C3.25,8.06630335 2.80228475,8.5140186 2.25,8.5140186 C1.71445115,8.5140186 1.27723028,8.09302648 1.25122383,7.56392868 L1.25,7.5140186 L1.25,5.5 C1.25,3.01471863 3.26471863,1 5.75,1 Z M12,13.25 C10.8954305,13.25 10,14.1454305 10,15.25 C10,16.3545695 10.8954305,17.25 12,17.25 C13.1045695,17.25 14,16.3545695 14,15.25 C14,14.1454305 13.1045695,13.25 12,13.25 Z" id="path-1"></path>
    </defs>
    <g id="Public/ic_public_unlock_filled" stroke="none" stroke-width="1" fill="none" fill-rule="evenodd">
        <mask id="mask-2" fill="white">
            <use xlink:href="#path-1"></use>
        </mask>
        <use id="形状结合" fill="#000000" fill-rule="nonzero" xlink:href="#path-1"></use>
    </g>
</svg>