<?xml version="1.0" encoding="utf-8"?>
<svg width="800px" height="800px" viewBox="0 0 24 24" xmlns="http://www.w3.org/2000/svg">
    <path
            fill="currentColor"
            d="
      M12 4
      C8.68629 4 6 6.68629 6 10
      C6 10.4142 6.33579 10.75 6.75 10.75
      C7.16421 10.75 7.5 10.4142 7.5 10
      C7.5 7.51472 9.51472 5.5 12 5.5
      C13.1541 5.5 14.2067 5.93402 15.0046 6.64745
      L13.7803 6.64745
      C13.3661 6.64745 13.0303 6.98324 13.0303 7.39745
      C13.0303 7.81167 13.3661 8.14745 13.7803 8.14745
      H16.75
      C17.1642 8.14745 17.5 7.81167 17.5 7.39745
      V4.75
      C17.5 4.33579 17.1642 4 16.75 4
      C16.3358 4 16 4.33579 16 4.75
      V5.60241
      C14.9226 4.60741 13.4782 4 12 4
      Z

      M17.25 13.25
      C16.8358 13.25 16.5 13.5858 16.5 14
      C16.5 16.4853 14.4853 18.5 12 18.5
      C10.8459 18.5 9.79329 18.066 8.99539 17.3526
      H10.2197
      C10.6339 17.3526 10.9697 17.0168 10.9697 16.6026
      C10.9697 16.1884 10.6339 15.8526 10.2197 15.8526
      H7.25
      C6.83579 15.8526 6.5 16.1884 6.5 16.6026
      V19.25
      C6.5 19.6642 6.83579 20 7.25 20
      C7.66421 20 8 19.6642 8 19.25
      V18.3976
      C9.07742 19.3926 10.5218 20 12 20
      C15.3137 20 18 17.3137 18 14
      C18 13.5858 17.6642 13.25 17.25 13.25
      Z
    "
    />
</svg>
