<?xml version="1.0" standalone="no"?><!DOCTYPE svg PUBLIC "-//W3C//DTD SVG 1.1//EN" "http://www.w3.org/Graphics/SVG/1.1/DTD/svg11.dtd"><svg t="1739188599839" class="icon" viewBox="0 0 1024 1024" version="1.1" xmlns="http://www.w3.org/2000/svg" p-id="2838" width="48" height="48" xmlns:xlink="http://www.w3.org/1999/xlink"><path d="M0 793.6a512 168.96 0 1 0 1024 0 512 168.96 0 1 0-1024 0Z" fill="#F5F6FA" p-id="2839"></path><path d="M284.0064 296.96h455.9872a20.48 20.48 0 0 1 17.12128 9.25696l130.41664 199.04512A20.48 20.48 0 0 1 890.88 516.48512V798.72a20.48 20.48 0 0 1-20.48 20.48H153.6a20.48 20.48 0 0 1-20.48-20.48V516.48512a20.48 20.48 0 0 1 3.34848-11.22304l130.41664-199.04512A20.48 20.48 0 0 1 284.0064 296.96z" fill="#F5F6FA" p-id="2840"></path><path d="M284.0064 291.84h455.9872a25.6 25.6 0 0 1 21.4016 11.5712l130.41664 199.04512a25.6 25.6 0 0 1 4.18816 14.0288V798.72a25.6 25.6 0 0 1-25.6 25.6H153.6a25.6 25.6 0 0 1-25.6-25.6V516.48512a25.6 25.6 0 0 1 4.18816-14.0288L262.59456 303.4112a25.6 25.6 0 0 1 21.41184-11.5712z m0 10.24a15.36 15.36 0 0 0-12.84096 6.94272L140.7488 508.06784a15.36 15.36 0 0 0-2.5088 8.41728V798.72a15.36 15.36 0 0 0 15.36 15.36h716.8a15.36 15.36 0 0 0 15.36-15.36V516.48512a15.36 15.36 0 0 0-2.5088-8.41728L752.83456 309.02272a15.36 15.36 0 0 0-12.84096-6.94272h-455.9872z" fill="#CECFD9" p-id="2841"></path><path d="M266.24 81.92h491.52a20.48 20.48 0 0 1 20.48 20.48v552.96a20.48 20.48 0 0 1-20.48 20.48H266.24a20.48 20.48 0 0 1-20.48-20.48V102.4a20.48 20.48 0 0 1 20.48-20.48z" fill="#FFFFFF" fill-opacity=".726" p-id="2842"></path><path d="M286.72 76.8v10.24h-20.48v-10.24h20.48z m40.96 0v10.24h-20.48v-10.24h20.48z m40.96 0v10.24h-20.48v-10.24h20.48z m40.96 0v10.24h-20.48v-10.24h20.48z m40.96 0v10.24h-20.48v-10.24h20.48z m40.96 0v10.24h-20.48v-10.24h20.48z m40.96 0v10.24h-20.48v-10.24h20.48z m40.96 0v10.24h-20.48v-10.24h20.48z m40.96 0v10.24h-20.48v-10.24h20.48z m40.96 0v10.24h-20.48v-10.24h20.48z m40.96 0v10.24h-20.48v-10.24h20.48z m40.96 0v10.24h-20.48v-10.24h20.48z m42.6496 12.8l-8.86784 5.12A15.34976 15.34976 0 0 0 757.76 87.04v-10.24c9.23648 0 17.62304 4.94592 22.1696 12.8z m3.4304 42.89536h-10.24v-20.48h10.24v20.48z m0 40.96h-10.24v-20.48h10.24v20.48z m0 40.96h-10.24v-20.48h10.24v20.48z m0 40.96h-10.24v-20.48h10.24v20.48z m0 40.96h-10.24v-20.48h10.24v20.48z m0 40.96h-10.24v-20.48h10.24v20.48z m0 40.96h-10.24v-20.48h10.24v20.48z m0 40.96h-10.24v-20.48h10.24v20.48z m0 40.96h-10.24v-20.48h10.24v20.48z m0 40.96h-10.24v-20.48h10.24v20.48z m0 40.96h-10.24v-20.48h10.24v20.48z m0 40.96h-10.24v-20.48h10.24v20.48z m0 40.96h-10.24v-20.48h10.24v20.48z m-2.816 43.02848l-9.1136-4.67968c1.10592-2.1504 1.6896-4.52608 1.6896-7.00416v-10.86464h10.24V655.36c0 4.11648-0.9728 8.0896-2.816 11.6736zM738.53952 680.96v-10.24h19.29216l0.95232-0.03072 0.6656 10.21952c-0.512 0.03072-1.04448 0.0512-1.5872 0.0512h-19.32288z m-40.96 0v-10.24h20.48v10.24h-20.48z m-40.96 0v-10.24h20.48v10.24h-20.48z m-40.96 0v-10.24h20.48v10.24h-20.48z m-40.96 0v-10.24h20.48v10.24h-20.48z m-40.96 0v-10.24h20.48v10.24h-20.48z m-40.96 0v-10.24h20.48v10.24h-20.48z m-40.96 0v-10.24h20.48v10.24h-20.48z m-40.96 0v-10.24h20.48v10.24h-20.48z m-40.96 0v-10.24h20.48v10.24h-20.48z m-40.96 0v-10.24h20.48v10.24h-20.48z m-40.96 0v-10.24h20.48v10.24h-20.48z m-42.9568-11.264l8.47872-5.7344c2.84672 4.1984 7.5776 6.7584 12.73856 6.7584h1.25952v10.24H266.24c-8.6016 0-16.4864-4.28032-21.21728-11.264z m-4.38272-43.17184h10.24v20.48h-10.24v-20.48z m0-40.96h10.24v20.48h-10.24v-20.48z m0-40.96h10.24v20.48h-10.24v-20.48z m0-40.96h10.24v20.48h-10.24v-20.48z m0-40.96h10.24v20.48h-10.24v-20.48z m0-40.96h10.24v20.48h-10.24v-20.48z m0-40.96h10.24v20.48h-10.24v-20.48z m0-40.96h10.24v20.48h-10.24v-20.48z m0-40.96h10.24v20.48h-10.24v-20.48z m0-40.96h10.24v20.48h-10.24v-20.48z m0-40.96h10.24v20.48h-10.24v-20.48z m0-40.96h10.24v20.48h-10.24v-20.48z m0-40.96h10.24v20.48h-10.24v-20.48z m2.11968-42.82368l9.39008 4.096c-0.82944 1.90464-1.26976 3.98336-1.26976 6.12352v12.12416h-10.24V102.4c0-3.55328 0.72704-7.02464 2.11968-10.21952zM266.00448 76.8l0.09216 10.24c-0.63488 0-1.26976 0.0512-1.88416 0.13312L262.8608 77.02528c1.024-0.14336 2.07872-0.21504 3.13344-0.22528z" fill="#CECFD9" p-id="2843"></path><path d="M143.36 512h226.37568a20.48 20.48 0 0 1 20.48 20.48v25.82528a20.48 20.48 0 0 0 20.48 20.48h202.60864a20.48 20.48 0 0 0 20.48-20.48V532.48a20.48 20.48 0 0 1 20.48-20.48H880.64a10.24 10.24 0 0 1 10.24 10.24v286.72a10.24 10.24 0 0 1-10.24 10.24H143.36a10.24 10.24 0 0 1-10.24-10.24V522.24a10.24 10.24 0 0 1 10.24-10.24z" fill="#FFFFFF" p-id="2844"></path><path d="M143.36 506.88h226.37568a25.6 25.6 0 0 1 25.6 25.6v25.82528a15.36 15.36 0 0 0 15.36 15.36h202.60864a15.36 15.36 0 0 0 15.36-15.36V532.48a25.6 25.6 0 0 1 25.6-25.6H880.64a15.36 15.36 0 0 1 15.36 15.36v286.72a15.36 15.36 0 0 1-15.36 15.36H143.36a15.36 15.36 0 0 1-15.36-15.36V522.24a15.36 15.36 0 0 1 15.36-15.36z m0 10.24a5.12 5.12 0 0 0-5.12 5.12v286.72a5.12 5.12 0 0 0 5.12 5.12h737.28a5.12 5.12 0 0 0 5.12-5.12V522.24a5.12 5.12 0 0 0-5.12-5.12H654.26432a15.36 15.36 0 0 0-15.36 15.36v25.82528a25.6 25.6 0 0 1-25.6 25.6H410.69568a25.6 25.6 0 0 1-25.6-25.6V532.48a15.36 15.36 0 0 0-15.36-15.36H143.36z" fill="#CECFD9" p-id="2845"></path></svg>