<svg width="32.000000" height="32.000000" viewBox="0 0 32 32" fill="none" xmlns="http://www.w3.org/2000/svg" xmlns:xlink="http://www.w3.org/1999/xlink">
  <desc>
    Learning icon for HarmonyOS application
  </desc>
  <defs>
    <clipPath id="clip25_1725">
      <rect width="32.000000" height="32.000000" fill="white" fill-opacity="0"/>
    </clipPath>
  </defs>
  <g clip-path="url(#clip25_1725)">
    <g opacity="0.000000"/>
    <!-- Book shape -->
    <path d="M8 6C8 5.44772 8.44772 5 9 5H23C23.5523 5 24 5.44772 24 6V26C24 26.5523 23.5523 27 23 27H9C8.44772 27 8 26.5523 8 26V6Z" fill="#FF2D55"/>
    <!-- Book pages -->
    <path d="M9 6H23V24H9V6Z" fill="#FFFFFF"/>
    <!-- Book spine -->
    <path d="M23 6H24V26H23V6Z" fill="#D42D4A"/>
    <!-- Learning symbol -->
    <path d="M16 12L18 15L21 16L18 17L16 20L14 17L11 16L14 15L16 12Z" fill="#FF2D55"/>
  </g>
</svg>