<svg xmlns="http://www.w3.org/2000/svg" width="40" height="40" version="1.1" viewBox="8 8 24 24">
  <g fill="none" fill-rule="evenodd" stroke="none" stroke-width="1">
    <g fill="#000" transform="translate(9 10.5)">
      <path fill-opacity=".6" d="M4.42458988,3.62052177 C4.75083601,3.62052177 5.06450169,3.74640193 5.30023664,3.9719359 L11.0868641,9.50815828 L16.8660228,3.97415289 C17.3712875,3.49032161 18.1731082,3.50769686 18.6569395,4.01296158 C18.8827132,4.24873692 19.0087435,4.56257454 19.0087435,4.88901561 L19.0087435,14.2406885 C19.0087435,15.1987825 18.2320548,15.9754712 17.2739608,15.9754712 L4.89270582,15.9754712 C3.93461184,15.9754712 3.15792321,15.1987825 3.15792321,14.2406885 L3.15792321,4.88718844 C3.15792321,4.18762775 3.7250292,3.62052177 4.42458988,3.62052177 Z M11.2494866,10.1658471 C10.94573,10.1658471 10.6994866,10.4120905 10.6994866,10.7158471 L10.6994866,10.7158471 L10.6994866,15.3195888 L10.7066851,15.4088017 C10.7493104,15.6701317 10.9761056,15.8695888 11.2494866,15.8695888 C11.5532432,15.8695888 11.7994866,15.6233455 11.7994866,15.3195888 L11.7994866,15.3195888 L11.7994866,10.7158471 L11.792288,10.6266343 C11.7496628,10.3653043 11.5228675,10.1658471 11.2494866,10.1658471 Z M14.8593737,10.0841026 L13.545805,10.0841026 C13.2420484,10.0841026 12.995805,10.330346 12.995805,10.6341026 L12.995805,10.6341026 L12.995805,15.3195888 L13.0030036,15.4088017 C13.0456288,15.6701317 13.2724241,15.8695888 13.545805,15.8695888 C13.8495616,15.8695888 14.095805,15.6233455 14.095805,15.3195888 L14.095805,15.3195888 L14.0955622,13.7431026 L14.8593737,13.7432654 L15.0094278,13.7372004 C15.9496889,13.660874 16.6889551,12.8736114 16.6889551,11.913684 C16.6889551,10.9032341 15.8698236,10.0841026 14.8593737,10.0841026 L14.8593737,10.0841026 Z M9.25999439,10.1934007 C8.97145518,10.0984628 8.66058557,10.2554077 8.56564769,10.5439469 L8.56564769,10.5439469 L7.567,13.575 L6.54911121,10.5407974 L6.51389299,10.4585148 C6.39031021,10.2243405 6.1118268,10.1074379 5.85266183,10.1944475 C5.56470076,10.2911248 5.40963462,10.6029358 5.50631191,10.8908968 L5.50631191,10.8908968 L7.05192811,15.4946386 L7.09250495,15.5882293 C7.3125673,15.9936555 7.94144915,15.9605203 8.09577421,15.4914891 L8.09577421,15.4914891 L9.61054061,10.8877474 L9.63158578,10.8007539 C9.67277357,10.5391935 9.51967969,10.2788447 9.25999439,10.1934007 Z M14.8593737,11.1841026 C15.2623104,11.1841026 15.5889551,11.5107474 15.5889551,11.913684 C15.5889551,12.3166207 15.2623104,12.6432654 14.8593737,12.6432654 L14.8593737,12.6432654 L14.097,12.643 L14.097,11.184 Z"/>
      <path d="M11.8831174,0.678596435 C12.3433617,0.878975348 12.7102719,1.24675115 12.9095656,1.70746635 L15.8722672,8.55645868 L19.3102355,6.78816327 C20.0878558,6.38819961 21.0424763,6.69435081 21.4424399,7.47197113 C21.6217416,7.82057438 21.6653482,8.22329863 21.5648201,8.60220156 L19.3511165,16.9459297 C19.1493588,17.70638 18.4611051,18.2358423 17.6743454,18.2358423 L4.49260492,18.2358423 C3.7058452,18.2358423 3.01759153,17.70638 2.8158338,16.9459297 L0.602130143,8.60220156 C0.37788478,7.75699253 0.881275297,6.89002844 1.72648433,6.66578308 C2.10538726,6.56525502 2.50811151,6.60886159 2.85671476,6.78816327 L6.29468313,8.55645868 L9.27842672,1.70318795 C9.71475906,0.700989337 10.8809188,0.242264093 11.8831174,0.678596435 Z M11.2494866,10.1658471 C10.94573,10.1658471 10.6994866,10.4120905 10.6994866,10.7158471 L10.6994866,10.7158471 L10.6994866,15.3195888 L10.7066851,15.4088017 C10.7493104,15.6701317 10.9761056,15.8695888 11.2494866,15.8695888 C11.5532432,15.8695888 11.7994866,15.6233455 11.7994866,15.3195888 L11.7994866,15.3195888 L11.7994866,10.7158471 L11.792288,10.6266343 C11.7496628,10.3653043 11.5228675,10.1658471 11.2494866,10.1658471 Z M14.8593737,10.0841026 L13.545805,10.0841026 C13.2420484,10.0841026 12.995805,10.330346 12.995805,10.6341026 L12.995805,10.6341026 L12.995805,15.3195888 L13.0030036,15.4088017 C13.0456288,15.6701317 13.2724241,15.8695888 13.545805,15.8695888 C13.8495616,15.8695888 14.095805,15.6233455 14.095805,15.3195888 L14.095805,15.3195888 L14.0955622,13.7431026 L14.8593737,13.7432654 L15.0094278,13.7372004 C15.9496889,13.660874 16.6889551,12.8736114 16.6889551,11.913684 C16.6889551,10.9032341 15.8698236,10.0841026 14.8593737,10.0841026 L14.8593737,10.0841026 Z M9.25999439,10.1934007 C8.97145518,10.0984628 8.66058557,10.2554077 8.56564769,10.5439469 L8.56564769,10.5439469 L7.567,13.575 L6.54911121,10.5407974 L6.51389299,10.4585148 C6.39031021,10.2243405 6.1118268,10.1074379 5.85266183,10.1944475 C5.56470076,10.2911248 5.40963462,10.6029358 5.50631191,10.8908968 L5.50631191,10.8908968 L7.05192811,15.4946386 L7.09250495,15.5882293 C7.3125673,15.9936555 7.94144915,15.9605203 8.09577421,15.4914891 L8.09577421,15.4914891 L9.61054061,10.8877474 L9.63158578,10.8007539 C9.67277357,10.5391935 9.51967969,10.2788447 9.25999439,10.1934007 Z M14.8593737,11.1841026 C15.2623104,11.1841026 15.5889551,11.5107474 15.5889551,11.913684 C15.5889551,12.3166207 15.2623104,12.6432654 14.8593737,12.6432654 L14.8593737,12.6432654 L14.097,12.643 L14.097,11.184 Z"/>
    </g>
  </g>
</svg>
