<svg height="40" version="1.1" viewBox="8 8 24 24" width="40" xmlns="http://www.w3.org/2000/svg">
<g fill="none" fill-rule="evenodd" stroke="none" stroke-width="40">

<path d="M28,22.75 C28.5355488,22.75 28.9727697,23.1709921 28.9987762,23.7000899 L29,23.75 L29,26 C29,27.6313642 27.6978639,28.9585982 26.0762437,28.99905 L26,29 L23.75,29 C23.1977153,29 22.75,28.5522847 22.75,28 C22.75,27.4644512 23.1709921,27.0272303 23.7000899,27.0012238 L23.75,27 L26,27 C26.5355488,27 26.9727697,26.5790079 26.9987762,26.0499101 L27,26 L27,23.75 C27,23.1977153 27.4477153,22.75 28,22.75 Z M12,22.75 C12.5355488,22.75 12.9727697,23.1709921 12.9987762,23.7000899 L13,23.75 L13,26 C13,26.5355488 13.4209921,26.9727697 13.9500899,26.9987762 L14,27 L16.25,27 C16.8022847,27 17.25,27.4477153 17.25,28 C17.25,28.5355488 16.8290079,28.9727697 16.2999101,28.9987762 L16.25,29 L14,29 C12.3686358,29 11.0414018,27.6978639 11.00095,26.0762437 L11,26 L11,23.75 C11,23.1977153 11.4477153,22.75 12,22.75 Z M26,11 C27.6313642,11 28.9585982,12.3021361 28.99905,13.9237563 L29,14 L29,16.25 C29,16.8022847 28.5522847,17.25 28,17.25 C27.4644512,17.25 27.0272303,16.8290079 27.0012238,16.2999101 L27,16.25 L27,14 C27,13.4644512 26.5790079,13.0272303 26.0499101,13.0012238 L26,13 L23.75,13 C23.1977153,13 22.75,12.5522847 22.75,12 C22.75,11.4644512 23.1709921,11.0272303 23.7000899,11.0012238 L23.75,11 L26,11 Z M16.25,11 C16.8022847,11 17.25,11.4477153 17.25,12 C17.25,12.5355488 16.8290079,12.9727697 16.2999101,12.9987762 L16.25,13 L14,13 C13.4644512,13 13.0272303,13.4209921 13.0012238,13.9500899 L13,14 L13,16.25 C13,16.8022847 12.5522847,17.25 12,17.25 C11.4644512,17.25 11.0272303,16.8290079 11.0012238,16.2999101 L11,16.25 L11,14 C11,12.3686358 12.3021361,11.0414018 13.9237563,11.00095 L14,11 L16.25,11 Z" fill="#000" fill-rule="nonzero"></path>
<path d="M28,19 C28.5522847,19 29,19.4477153 29,20 C29,20.5522847 28.5522847,21 28,21 L12,21 C11.4477153,21 11,20.5522847 11,20 C11,19.4477153 11.4477153,19 12,19 L28,19 Z" fill="#000" fill-opacity=".6" fill-rule="nonzero"></path>
</g>
</svg>
