<svg height="40" version="1.1" viewBox="8 8 24 24" width="40" xmlns="http://www.w3.org/2000/svg">
<g fill="none" fill-rule="evenodd" stroke="none" stroke-width="40">

<g fill="#000" transform="translate(9 11)">
<path d="M17.9449518,-1.63424829e-12 C19.8089128,-1.6345907e-12 21.3199518,1.51103897 21.3199518,3.375 L21.3199518,13.8311512 C21.3199518,15.6951123 19.8089128,17.2061512 17.9449518,17.2061512 L3.375,17.2061512 C1.51103897,17.2061512 3.78098307e-15,15.6951123 3.55271368e-15,13.8311512 L3.55271368e-15,3.375 C1.99217666e-15,1.51103897 1.51103897,-1.63390589e-12 3.375,-1.63424829e-12 L17.9449518,-1.63424829e-12 Z M8.59869187,4.66557562 C7.97737153,4.66557562 7.47369187,5.16925527 7.47369187,5.79057562 L7.47369187,5.79057562 L7.47369187,11.4155756 C7.47369187,12.036896 7.97737153,12.5405756 8.59869187,12.5405756 C9.22001222,12.5405756 9.72369187,12.036896 9.72369187,11.4155756 L9.72369187,11.4155756 L9.72369187,5.79057562 C9.72369187,5.16925527 9.22001222,4.66557562 8.59869187,4.66557562 Z M16.1500343,4.66557562 C15.528714,4.66557562 15.0250343,5.16925527 15.0250343,5.79057562 L15.0250343,5.79057562 L15.0250343,11.4155756 C15.0250343,12.036896 15.528714,12.5405756 16.1500343,12.5405756 C16.7713547,12.5405756 17.2750343,12.036896 17.2750343,11.4155756 L17.2750343,11.4155756 L17.2750343,5.79057562 C17.2750343,5.16925527 16.7713547,4.66557562 16.1500343,4.66557562 Z M4.82302065,4.66557562 C4.39328613,4.66557562 4.04491748,5.01394427 4.04491748,5.44367879 L4.04491748,5.44367879 L4.04491748,11.7624724 C4.04491748,12.192207 4.39328613,12.5405756 4.82302065,12.5405756 C5.25275517,12.5405756 5.60112383,12.192207 5.60112383,11.7624724 L5.60112383,11.7624724 L5.60112383,5.44367879 C5.60112383,5.01394427 5.25275517,4.66557562 4.82302065,4.66557562 Z M12.3743631,4.66557562 C11.9446286,4.66557562 11.5962599,5.01394427 11.5962599,5.44367879 L11.5962599,5.44367879 L11.5962599,11.7624724 C11.5962599,12.192207 11.9446286,12.5405756 12.3743631,12.5405756 C12.8040976,12.5405756 13.1524663,12.192207 13.1524663,11.7624724 L13.1524663,11.7624724 L13.1524663,5.44367879 C13.1524663,5.01394427 12.8040976,4.66557562 12.3743631,4.66557562 Z"></path>
<rect fill-opacity=".6" height="7.875" rx="1.125" width="2.25" x="7.474" y="4.666"></rect>
</g>
</g>
</svg>
