<?xml version="1.0" encoding="UTF-8"?>
<svg height="40" version="1.1" viewBox="8 8 24 24" width="40" xmlns="http://www.w3.org/2000/svg" xmlns:xlink="http://www.w3.org/1999/xlink">
<title>ic_ride_code </title>
<g fill="none" fill-rule="evenodd" id="ic_ride_code-" stroke="none" stroke-width="40">
<g>
<g fill="#333333" id="icon_bg">

</g>
<path d="M28.9715865,22.3045607 C29.6776348,22.3051994 30.25,22.8771381 30.25,23.5826601 L30.25,25.6697606 C30.25,27.1417405 29.3062276,28.3932905 27.990781,28.8523125 L27.9900427,29.8324256 C27.9900427,30.1303687 27.7485121,30.3718993 27.450569,30.3718993 L26.9110953,30.3718993 C26.6131522,30.3718993 26.3716216,30.1303687 26.3716216,29.8324256 L26.371,29.0385607 L13.584,29.0215607 L13.5846373,29.8324256 C13.5846373,30.1303687 13.3431067,30.3718993 13.0451636,30.3718993 L12.5056899,30.3718993 C12.2077468,30.3718993 11.9662162,30.1303687 11.9662162,29.8324256 L11.965647,28.8177367 C10.6728461,28.3464691 9.75,27.1062491 9.75,25.650733 L9.75,23.5820214 C9.75,22.8764993 10.3223652,22.3045607 11.0284135,22.3045607 L28.9715865,22.3045607 Z M27.2027027,24.3835616 C26.8068138,24.3835616 26.4409974,24.5947658 26.2430529,24.9376157 C26.0451085,25.2804655 26.0451085,25.702874 26.2430529,26.0457238 C26.4409974,26.3885737 26.8068138,26.5997779 27.2027027,26.5997779 C27.8146939,26.5997779 28.3108108,26.1036609 28.3108108,25.4916698 C28.3108108,24.8796786 27.8146939,24.3835616 27.2027027,24.3835616 Z M12.7972973,24.3835616 C12.4014084,24.3835616 12.035592,24.5947658 11.8376475,24.9376157 C11.6397031,25.2804655 11.6397031,25.702874 11.8376475,26.0457238 C12.035592,26.3885737 12.4014084,26.5997779 12.7972973,26.5997779 C13.4092885,26.5997779 13.9054054,26.1036609 13.9054054,25.4916698 C13.9054054,24.8796786 13.4092885,24.3835616 12.7972973,24.3835616 Z M18.3378378,10.5322103 C19.3578232,10.5322103 20.1938811,11.3196974 20.2711927,12.319853 L20.277027,12.4713995 L20.277027,19.1200481 C20.277027,20.1400335 19.4895399,20.9760914 18.4893843,21.053403 L18.3378378,21.0592373 L11.6891892,21.0592373 C10.6692038,21.0592373 9.83314597,20.2717502 9.7558343,19.2715946 L9.75,19.1200481 L9.75,12.4713995 C9.75,11.4514141 10.5374871,10.6153563 11.5376427,10.5380446 L11.6891892,10.5322103 L18.3378378,10.5322103 Z M23.5065789,10.5322103 C23.804522,10.5322103 24.0460526,10.7737409 24.0460526,11.071684 L24.0460526,20.2427366 C24.0460526,20.5406797 23.804522,20.7822103 23.5065789,20.7822103 L22.9671053,20.7822103 C22.6691622,20.7822103 22.4276316,20.5406797 22.4276316,20.2427366 L22.4276316,11.071684 C22.4276316,10.7737409 22.6691622,10.5322103 22.9671053,10.5322103 L23.5065789,10.5322103 Z M29.6551009,18.8940524 C29.953044,18.8940524 30.1945746,19.135583 30.1945746,19.4335261 L30.1945746,20.2427366 C30.1945746,20.5406797 29.953044,20.7822103 29.6551009,20.7822103 L29.1156273,20.7822103 C28.8176842,20.7822103 28.5761536,20.5406797 28.5761536,20.2427366 L28.5761536,19.4335261 C28.5761536,19.135583 28.8176842,18.8940524 29.1156273,18.8940524 L29.6551009,18.8940524 Z M26.5549748,14.0387892 C26.8529179,14.0387892 27.0944484,14.2803198 27.0944484,14.5782629 L27.0944484,20.2427366 C27.0944484,20.5406797 26.8529179,20.7822103 26.5549748,20.7822103 L26.0155011,20.7822103 C25.717558,20.7822103 25.4760274,20.5406797 25.4760274,20.2427366 L25.4760274,14.5782629 C25.4760274,14.2803198 25.717558,14.0387892 26.0155011,14.0387892 L26.5549748,14.0387892 Z M18.3378378,12.1943725 L11.6891892,12.1943725 C11.5580482,12.1943725 11.4481903,12.285496 11.4194786,12.4078797 L11.4121622,12.4713995 L11.4121622,19.1200481 C11.4121622,19.2511891 11.5032857,19.361047 11.6256694,19.3897587 L11.6891892,19.3970752 L18.3378378,19.3970752 C18.4689788,19.3970752 18.5788367,19.3059516 18.6075484,19.1835679 L18.6148649,19.1200481 L18.6148649,12.4713995 C18.6148649,12.3184017 18.4908356,12.1943725 18.3378378,12.1943725 Z M29.6551009,10.5322103 C29.953044,10.5322103 30.1945746,10.7737409 30.1945746,11.071684 L30.1945746,16.7361577 C30.1945746,17.0341007 29.953044,17.2756313 29.6551009,17.2756313 L29.1156273,17.2756313 C28.8176842,17.2756313 28.5761536,17.0341007 28.5761536,16.7361577 L28.5761536,11.071684 C28.5761536,10.7737409 28.8176842,10.5322103 29.1156273,10.5322103 L29.6551009,10.5322103 Z M26.5549748,10.5322103 C26.8529179,10.5322103 27.0944484,10.7737409 27.0944484,11.071684 L27.0944484,11.8808945 C27.0944484,12.1788376 26.8529179,12.4203682 26.5549748,12.4203682 L26.0155011,12.4203682 C25.717558,12.4203682 25.4760274,12.1788376 25.4760274,11.8808945 L25.4760274,11.071684 C25.4760274,10.7737409 25.717558,10.5322103 26.0155011,10.5322103 L26.5549748,10.5322103 Z" fill="#000000" fill-rule="nonzero" id="Combined-Shape"></path>
</g>
</g>
</svg>