<?xml version="1.0" encoding="UTF-8"?>
<svg width="24px" height="24px" viewBox="0 0 24 24" version="1.1" xmlns="http://www.w3.org/2000/svg" xmlns:xlink="http://www.w3.org/1999/xlink">
    <title>Public/ic_public_cards</title>
    <defs>
        <path d="M23,17 C23,19.209139 21.209139,21 19,21 L5,21 C2.790861,21 1,19.209139 1,17 L1,7 C1,4.790861 2.790861,3 5,3 L19,3 C21.1421954,3 22.8910789,4.68396847 22.9951047,6.80035966 L23,7 L23,17 Z M21.5,9 L2.5,9 L2.5,17 C2.5,18.35731 3.5816677,19.4619829 4.93002379,19.4990396 L5,19.5 L19,19.5 C20.35731,19.5 21.4619829,18.4183323 21.4990396,17.0699762 L21.5,17 L21.5,9 Z M11.25,10.5 C11.6642136,10.5 12,10.8357864 12,11.25 C12,11.6642136 11.6642136,12 11.25,12 L4.75,12 C4.33578644,12 4,11.6642136 4,11.25 C4,10.8357864 4.33578644,10.5 4.75,10.5 L11.25,10.5 Z M19.0699762,4.50096045 L5,4.5 C3.64269002,4.5 2.53801707,5.5816677 2.50096045,6.93002379 L2.5,7 L21.5,7 C21.5,5.64269002 20.4183323,4.53801707 19.0699762,4.50096045 Z" id="path-1"></path>
    </defs>
    <g id="Public/ic_public_cards" stroke="none" stroke-width="1" fill="none" fill-rule="evenodd">
        <mask id="mask-2" fill="white">
            <use xlink:href="#path-1"></use>
        </mask>
        <use id="形状结合" fill="#000" fill-rule="nonzero" xlink:href="#path-1"></use>
    </g>
</svg>