<?xml version="1.0" encoding="UTF-8"?>
<svg width="24px" height="24px" viewBox="0 0 24 24" version="1.1" xmlns="http://www.w3.org/2000/svg" xmlns:xlink="http://www.w3.org/1999/xlink">
    <title>ic_bottom_star_selected</title>
    <defs>
        <path d="M18.9644843,13.4953627 L18.5583362,13.891644 C18.3226501,14.1213812 18.2151017,14.4523814 18.2707396,14.7767754 L19.0417936,19.2723649 C19.2051753,20.2249537 18.5653966,21.1296265 17.6128078,21.2930083 C17.233482,21.3580678 16.8432878,21.2962671 16.502632,21.1171737 L13.370917,19.4707361 C14.8799294,18.2083685 16.3396237,16.5514564 17.75,14.5 C17.8946364,14.3590143 18.3500792,14.0014458 18.9644843,13.4953627 Z M12.77449,1.63492692 C13.1196121,1.80525484 13.3989602,2.084603 13.5692881,2.42972506 L15.5879336,6.51994748 C15.7335956,6.81509095 16.0151612,7.01966033 16.3408713,7.06698879 L20.8546998,7.72288645 C21.8111533,7.86186728 22.4738458,8.74989227 22.334865,9.70634578 C22.2795221,10.0872106 22.1001695,10.4392098 21.8245732,10.7078499 L19.6760114,12.8014342 L19.5568049,12.9183776 C18.0228612,14.2524735 16.527995,15.4523181 15.0722065,16.5179114 C13.6164179,17.5835046 12.107038,18.5826772 10.5440669,19.5154293 L10.5479464,19.5118248 L7.49736799,21.1171737 C6.64188996,21.5669251 5.58379244,21.2380187 5.13404103,20.3825407 C4.95494765,20.0418849 4.89314697,19.6516907 4.95820645,19.2723649 L5.7292604,14.7767754 C5.78489833,14.4523814 5.67734985,14.1213812 5.44166376,13.891644 L2.17542683,10.7078499 C1.48333057,10.0332227 1.46916903,8.92527453 2.14379615,8.23317827 C2.41243621,7.95758191 2.76443543,7.77822934 3.14530023,7.72288645 L7.65912866,7.06698879 C7.98483882,7.01966033 8.26640441,6.81509095 8.41206642,6.51994748 L10.4307119,2.42972506 C10.8584509,1.56303116 11.9077961,1.20718791 12.77449,1.63492692 Z" id="path-1"></path>
    </defs>
    <g id="ic_bottom_star_selected" stroke="none" stroke-width="1" fill="none" fill-rule="evenodd">
        <mask id="mask-2" fill="white">
            <use xlink:href="#path-1"></use>
        </mask>
        <use id="形状结合" fill="#007DFF" fill-rule="nonzero" xlink:href="#path-1"></use>
    </g>
</svg>